<?xml version="1.0" encoding="UTF-8"?>
<svg version="1.1" xmlns="http://www.w3.org/2000/svg" width="512" height="512">
<path d="M0 0 C5.99720333 4.15098613 11.16138613 8.87982411 16.2890625 14.04855347 C17.0840235 14.84180562 17.87898451 15.63505778 18.69803524 16.45234787 C21.34512579 19.09615944 23.98503175 21.74702715 26.625 24.39794922 C28.52720538 26.30071906 30.42980395 28.20308799 32.332901 30.10496521 C36.42142729 34.1924459 40.50629351 38.28355459 44.58865356 42.37719345 C50.49096867 48.29580487 56.39883877 54.20884588 62.30805266 60.12056853 C71.89662562 69.71351212 81.4807294 79.31090783 91.06201172 88.91113281 C100.36597474 98.23347101 109.67204879 107.55369354 118.98095703 116.87109375 C119.55534539 117.44600756 120.12973375 118.02092136 120.72152781 118.6132568 C123.60325402 121.49759319 126.48502163 124.3818882 129.36680984 127.26616263 C153.25096421 151.17102982 177.12786051 175.08313441 201 199 C204.04998857 197.63695684 206.1455015 196.10123031 208.4968214 193.73810101 C209.17501405 193.06142366 209.8532067 192.38474632 210.55195063 191.6875636 C211.65753092 190.56915207 211.65753092 190.56915207 212.78544617 189.42814636 C213.57472293 188.63775618 214.3639997 187.84736601 215.17719394 187.03302461 C217.82951456 184.37461602 220.47461614 181.70913725 223.11987305 179.04370117 C225.01670944 177.13975458 226.91395128 175.23622085 228.81175232 173.33323669 C232.90279158 169.22959798 236.99036899 165.12253723 241.0758419 161.01335716 C246.99053429 155.06470639 252.91264946 149.1234883 258.83699188 143.18444971 C268.45880446 133.53873854 278.07760984 123.89003571 287.69311523 114.23803711 C288.2686717 113.6603004 288.84422817 113.08256369 289.43722574 112.4873198 C297.59906078 104.29428585 305.75789375 96.09826886 313.9155126 87.90103719 C314.48955311 87.32421006 315.06359362 86.74738292 315.6550293 86.15307617 C316.22836692 85.57695149 316.80170454 85.00082681 317.39241602 84.40724381 C326.96215635 74.79138758 336.53964716 65.18329411 346.12349159 55.58149511 C352.03173991 49.66155663 357.93339867 43.73519746 363.82668129 37.80035982 C367.86888061 33.73068242 371.91832594 29.66830983 375.97347989 25.611541 C378.31088294 23.27273397 380.6437795 20.92972515 382.97015381 18.5799408 C385.49745875 16.02819623 388.03688957 13.48914948 390.57963562 10.95280457 C391.6684855 9.84443128 391.6684855 9.84443128 392.77933234 8.71366662 C401.04065341 0.53278933 409.89807378 -4.2595306 421.6875 -4.375 C432.96142684 -4.29105896 440.62746906 -1.30594657 448.8359375 6.62890625 C457.11527257 15.70030767 458.58949256 24.68176939 458.30078125 36.578125 C457.53948032 51.47831941 445.51316952 60.63476005 435.59498596 70.55891418 C434.69188672 71.46639568 433.78878749 72.37387717 432.85832161 73.3088581 C430.38042326 75.79856791 427.89950689 78.28525007 425.41799915 80.77136171 C422.73115837 83.46421689 420.04711271 86.15985602 417.36260986 88.8550415 C410.89887866 95.34314601 404.43033196 101.82643866 397.96087661 108.30883482 C396.13192363 110.14150774 394.30309708 111.97430674 392.47431445 113.80714965 C381.09702501 125.20965963 369.71814182 136.61057657 358.33447361 148.00671864 C355.70595429 150.63816714 353.07745127 153.26963193 350.44897461 155.90112305 C349.79576136 156.55508234 349.14254812 157.20904164 348.46954053 157.88281789 C337.8731898 168.49183991 327.28717444 179.11111383 316.70531321 189.73458628 C305.82327063 200.65906747 294.93180538 211.57408319 284.03113502 222.47997779 C277.9179197 228.59660258 271.80891664 234.71730853 265.71051216 240.84870338 C260.52165711 246.06558496 255.32434844 251.2738548 250.11587114 256.47114895 C247.46114994 259.12069246 244.81059362 261.77406981 242.17089653 264.4385891 C239.3047594 267.3314516 236.41946131 270.20442803 233.53199768 273.07600403 C232.29504956 274.33377528 232.29504956 274.33377528 231.03311259 275.61695606 C221.73959209 284.78518743 213.02474102 288.26687347 200.14257812 288.24658203 C185.51165804 288.00450198 177.41407661 279.71635676 167.52973938 269.80389404 C166.1465791 268.42858878 166.1465791 268.42858878 164.7354762 267.02549958 C162.19336465 264.49747815 159.65745149 261.96331989 157.12259758 259.42802405 C154.38109001 256.68817258 151.63388246 253.95404587 148.88748169 251.21910095 C142.89272079 245.24712355 136.90537093 239.26775291 130.91946054 233.28690624 C127.17908197 229.549791 123.43707457 225.8143097 119.69472313 222.07917023 C109.32416509 211.72816567 98.95517976 201.37559313 88.59293842 191.01626205 C87.93076467 190.35427587 87.26859091 189.69228968 86.58635129 189.01024331 C85.24412358 187.66838185 83.90189715 186.32651911 82.55967198 184.98465511 C81.89343481 184.31860076 81.22719765 183.65254641 80.54077148 182.96630859 C79.87371873 182.29943638 79.20666597 181.63256417 78.51939949 180.94548371 C67.70461839 170.13424616 56.87813916 159.3348062 46.04646311 148.54049811 C34.91404688 137.44617946 23.79102981 126.342511 12.6774947 115.22927785 C6.44208275 108.99444996 0.20279213 102.76361955 -6.04678917 96.54299164 C-11.36629118 91.24802228 -16.67707123 85.94449316 -21.97680172 80.62973157 C-24.67900252 77.92037098 -27.38502751 75.21515481 -30.10217094 72.52077293 C-33.05206765 69.59535136 -35.98209074 66.65078212 -38.91069031 63.70404053 C-39.76613251 62.86179829 -40.62157471 62.01955606 -41.5029394 61.15179133 C-50.71406545 51.81000879 -54.32191041 42.99388543 -54.31030273 29.97265625 C-54.11556429 19.31418471 -50.74425262 12.9028097 -43.3671875 5.19921875 C-32.02657979 -5.33669237 -13.56081204 -8.23335016 0 0 Z " fill="#FFFFFF" transform="translate(54,114)"/>
</svg>
